<?xml version="1.0" standalone="no"?>
<!DOCTYPE svg PUBLIC "-//W3C//DTD SVG 20010904//EN"
 "http://www.w3.org/TR/2001/REC-SVG-20010904/DTD/svg10.dtd">
<svg version="1.0" xmlns="http://www.w3.org/2000/svg"
 width="177.000000pt" height="50.000000pt" viewBox="0 0 177.000000 50.000000"
 preserveAspectRatio="xMidYMid meet">
<metadata>
Created by potrace 1.16, written by Peter Selinger 2001-2019
</metadata>
<g transform="translate(0.000000,50.000000) scale(0.100000,-0.100000)"
fill="#000000" stroke="none">
<path d="M142 418 c-9 -12 -53 -200 -48 -205 1 -2 38 -4 82 -5 63 -2 86 1 107
15 30 20 45 62 30 87 -8 11 -7 21 3 35 20 27 17 63 -5 75 -28 15 -156 13 -169
-2z"/>
<path d="M974 413 c-9 -10 -35 -47 -58 -83 l-41 -65 -3 35 c-5 68 -11 80 -38
80 -25 0 -26 -2 -20 -40 19 -120 27 -140 52 -140 20 0 36 17 86 95 l60 95 178
0 c164 0 178 1 195 20 18 20 17 20 -188 20 -184 0 -209 -2 -223 -17z"/>
<path d="M635 367 c-38 -18 -60 -44 -69 -80 -5 -21 -1 -33 18 -52 23 -23 32
-25 101 -23 42 1 79 6 81 10 3 4 0 8 -5 8 -6 0 -2 15 9 33 25 41 25 69 0 92
-25 23 -97 29 -135 12z"/>
<path d="M1054 370 c-55 -22 -86 -119 -48 -150 33 -29 154 -5 154 30 0 14 -36
12 -60 -2 -15 -9 -25 -10 -37 -2 -38 24 -26 34 40 34 56 0 67 3 72 20 17 53
-57 96 -121 70z"/>
<path d="M1263 373 c-33 -7 -60 -46 -68 -99 -3 -26 -9 -53 -12 -61 -4 -11 1
-14 22 -11 25 3 29 9 44 68 15 59 19 65 44 68 l28 3 -3 -67 c-3 -58 0 -69 14
-72 12 -2 20 7 27 35 20 80 21 99 9 116 -14 18 -67 29 -105 20z"/>
<path d="M1515 373 c-40 -4 -41 -4 -73 -84 -18 -44 -30 -84 -27 -90 4 -5 17
-9 30 -9 17 0 23 -4 19 -14 -4 -9 10 -23 39 -40 24 -14 46 -26 48 -26 3 0 22
21 43 48 37 46 37 46 3 11 l-34 -36 -16 27 c-16 26 -15 28 22 69 36 39 41 42
75 36 50 -10 45 0 -11 19 -41 14 -48 14 -63 1 -9 -8 -20 -12 -23 -8 -4 3 -7 0
-7 -9 0 -8 -8 -22 -18 -31 -15 -14 -22 -15 -35 -4 -16 11 -16 15 -1 61 13 37
24 51 48 61 17 7 34 11 38 9 5 -3 8 0 8 5 0 6 -6 10 -12 9 -7 -1 -31 -3 -53
-5z"/>
<path d="M1410 145 c-21 -12 -99 -14 -442 -15 -230 0 -418 -3 -419 -7 -1 -5
-2 -23 -4 -40 l-3 -33 422 0 422 0 37 38 c26 26 36 44 31 55 -7 20 -12 20 -44
2z"/>
</g>
</svg>
